STARTFONT 2.1
COMMENT
COMMENT Converted from OpenType font "Early GameBoy.ttf" by "otf2bdf 3.0".
COMMENT
FONT -FreeType-Early GameBoy-Medium-R-Normal--17-120-100-100-P-126-ISO10646-1
SIZE 12 100 100
FONTBOUNDINGBOX 106 21 -2 -4
STARTPROPERTIES 19
FOUNDRY "FreeType"
FAMILY_NAME "Early GameBoy"
WEIGHT_NAME "Medium"
SLANT "R"
SETWIDTH_NAME "Normal"
ADD_STYLE_NAME ""
PIXEL_SIZE 17
POINT_SIZE 120
RESOLUTION_X 100
RESOLUTION_Y 100
SPACING "P"
AVERAGE_WIDTH 126
CHARSET_REGISTRY "ISO10646"
CHARSET_ENCODING "1"
FONT_ASCENT 17
FONT_DESCENT 4
COPYRIGHT "Copyright LDEJRuff 2012"
_OTF_FONTFILE "Early GameBoy.ttf"
_OTF_PSNAME "Early-GameBoy"
ENDPROPERTIES
CHARS 86
STARTCHAR 0020
ENCODING 32
SWIDTH 480 0
DWIDTH 8 0
BBX 0 0 0 0
BITMAP
ENDCHAR
STARTCHAR 0021
ENCODING 33
SWIDTH 960 0
DWIDTH 16 0
BBX 6 13 4 0
BITMAP
FC
FC
FC
FC
FC
FC
FC
FC
FC
00
00
FC
FC
ENDCHAR
STARTCHAR 0022
ENCODING 34
SWIDTH 1020 0
DWIDTH 17 0
BBX 10 6 0 9
BITMAP
F3C0
F3C0
F3C0
F3C0
30C0
30C0
ENDCHAR
STARTCHAR 0027
ENCODING 39
SWIDTH 960 0
DWIDTH 16 0
BBX 4 6 4 9
BITMAP
F0
F0
F0
F0
30
30
ENDCHAR
STARTCHAR 0028
ENCODING 40
SWIDTH 1020 0
DWIDTH 17 0
BBX 15 17 -2 -2
BITMAP
0FC0
0FC0
3030
3030
C006
C006
C0C6
C0C6
C0C6
C0C6
C006
C306
C306
3030
3030
0FC0
0FC0
ENDCHAR
STARTCHAR 0029
ENCODING 41
SWIDTH 960 0
DWIDTH 16 0
BBX 10 13 0 0
BITMAP
3F00
3F00
F3C0
F3C0
C0C0
C0C0
C0C0
C0C0
C0C0
F3C0
F3C0
3F00
3F00
ENDCHAR
STARTCHAR 002A
ENCODING 42
SWIDTH 960 0
DWIDTH 16 0
BBX 10 11 0 0
BITMAP
C0C0
C0C0
3300
3300
0000
0C00
0C00
3300
3300
C0C0
C0C0
ENDCHAR
STARTCHAR 002C
ENCODING 44
SWIDTH 1020 0
DWIDTH 17 0
BBX 4 8 2 -2
BITMAP
F0
F0
F0
F0
30
30
C0
C0
ENDCHAR
STARTCHAR 002D
ENCODING 45
SWIDTH 960 0
DWIDTH 16 0
BBX 8 4 2 4
BITMAP
FF
FF
FF
FF
ENDCHAR
STARTCHAR 002E
ENCODING 46
SWIDTH 1020 0
DWIDTH 17 0
BBX 4 4 0 0
BITMAP
F0
F0
F0
F0
ENDCHAR
STARTCHAR 0030
ENCODING 48
SWIDTH 1020 0
DWIDTH 17 0
BBX 12 13 0 0
BITMAP
3FC0
3FC0
F0F0
F0F0
F0F0
F0F0
F0F0
F0F0
F0F0
F0F0
F0F0
3FC0
3FC0
ENDCHAR
STARTCHAR 0031
ENCODING 49
SWIDTH 1020 0
DWIDTH 17 0
BBX 8 13 2 0
BITMAP
3C
3C
FC
FC
3C
3C
3C
3C
3C
3C
3C
FF
FF
ENDCHAR
STARTCHAR 0032
ENCODING 50
SWIDTH 1020 0
DWIDTH 17 0
BBX 12 13 0 0
BITMAP
3FC0
3FC0
C3F0
C3F0
03F0
03F0
3FC0
3FC0
FC00
FC00
FC00
FFF0
FFF0
ENDCHAR
STARTCHAR 0033
ENCODING 51
SWIDTH 1020 0
DWIDTH 17 0
BBX 12 13 0 0
BITMAP
FFC0
FFC0
03F0
03F0
3FC0
3FC0
03C0
03F0
03F0
03F0
03F0
FFC0
FFC0
ENDCHAR
STARTCHAR 0034
ENCODING 52
SWIDTH 1020 0
DWIDTH 17 0
BBX 13 13 0 0
BITMAP
3FC0
3FC0
F3C0
F3C0
C3C0
C3C0
C3C0
C3C0
C3C0
FFF8
FFF8
03C0
03C0
ENDCHAR
STARTCHAR 0035
ENCODING 53
SWIDTH 1020 0
DWIDTH 17 0
BBX 12 13 0 0
BITMAP
FFC0
FFC0
F000
F000
FFC0
FFC0
03C0
03F0
03F0
C3F0
C3F0
3FC0
3FC0
ENDCHAR
STARTCHAR 0036
ENCODING 54
SWIDTH 1020 0
DWIDTH 17 0
BBX 12 13 0 0
BITMAP
3FC0
3FC0
F000
F000
FFC0
FFC0
F0C0
F0F0
F0F0
F0F0
F0F0
3FC0
3FC0
ENDCHAR
STARTCHAR 0037
ENCODING 55
SWIDTH 1020 0
DWIDTH 17 0
BBX 12 13 0 0
BITMAP
FFF0
FFF0
00F0
00F0
03C0
03C0
03C0
0F00
0F00
3F00
3F00
3F00
3F00
ENDCHAR
STARTCHAR 0038
ENCODING 56
SWIDTH 1020 0
DWIDTH 17 0
BBX 12 13 0 0
BITMAP
3FC0
3FC0
C3F0
C3F0
3FC0
3FC0
03C0
C3F0
C3F0
C3F0
C3F0
3FC0
3FC0
ENDCHAR
STARTCHAR 0039
ENCODING 57
SWIDTH 1020 0
DWIDTH 17 0
BBX 12 13 0 0
BITMAP
3FC0
3FC0
C3F0
C3F0
C3F0
C3F0
03F0
3FF0
3FF0
03F0
03F0
3FC0
3FC0
ENDCHAR
STARTCHAR 003A
ENCODING 58
SWIDTH 1020 0
DWIDTH 17 0
BBX 4 11 2 0
BITMAP
F0
F0
F0
F0
00
00
00
F0
F0
F0
F0
ENDCHAR
STARTCHAR 003B
ENCODING 59
SWIDTH 1020 0
DWIDTH 17 0
BBX 4 15 2 -2
BITMAP
F0
F0
F0
F0
00
00
00
F0
F0
F0
F0
30
30
C0
C0
ENDCHAR
STARTCHAR 003C
ENCODING 60
SWIDTH 1140 0
DWIDTH 19 0
BBX 15 15 0 -4
BITMAP
3CF0
3CF0
C306
C306
C006
C006
C006
C006
C006
3030
3030
0CC0
0CC0
0300
0300
ENDCHAR
STARTCHAR 003E
ENCODING 62
SWIDTH 1080 0
DWIDTH 18 0
BBX 10 11 2 -2
BITMAP
33C0
33C0
3FC0
3FC0
3FC0
FFC0
FFC0
3F00
3F00
0C00
0C00
ENDCHAR
STARTCHAR 003F
ENCODING 63
SWIDTH 960 0
DWIDTH 16 0
BBX 12 15 -2 -2
BITMAP
3FC0
3FC0
C3F0
C3F0
03F0
03F0
03C0
0FC0
0FC0
0F00
0F00
0000
0000
0F00
0F00
ENDCHAR
STARTCHAR 0041
ENCODING 65
SWIDTH 960 0
DWIDTH 16 0
BBX 12 13 0 0
BITMAP
3FC0
3FC0
C3F0
C3F0
C3F0
C3F0
C3F0
FFF0
FFF0
C3F0
C3F0
C3F0
C3F0
ENDCHAR
STARTCHAR 0042
ENCODING 66
SWIDTH 960 0
DWIDTH 16 0
BBX 12 13 0 0
BITMAP
FFC0
FFC0
F0F0
F0F0
FFC0
FFC0
F0C0
F0F0
F0F0
F0F0
F0F0
FFC0
FFC0
ENDCHAR
STARTCHAR 0043
ENCODING 67
SWIDTH 960 0
DWIDTH 16 0
BBX 12 13 0 0
BITMAP
3FC0
3FC0
F0F0
F0F0
F000
F000
F000
F000
F000
F0F0
F0F0
3FC0
3FC0
ENDCHAR
STARTCHAR 0044
ENCODING 68
SWIDTH 960 0
DWIDTH 16 0
BBX 12 13 0 0
BITMAP
FFC0
FFC0
C3F0
C3F0
C3F0
C3F0
C3F0
C3F0
C3F0
C3F0
C3F0
FFC0
FFC0
ENDCHAR
STARTCHAR 0045
ENCODING 69
SWIDTH 1020 0
DWIDTH 17 0
BBX 13 13 0 0
BITMAP
FFF8
FFF8
F000
F000
FFE0
FFE0
F000
F000
F000
F000
F000
FFF8
FFF8
ENDCHAR
STARTCHAR 0046
ENCODING 70
SWIDTH 1020 0
DWIDTH 17 0
BBX 13 13 0 0
BITMAP
FFF8
FFF8
F000
F000
F000
F000
F000
FFE0
FFE0
F000
F000
F000
F000
ENDCHAR
STARTCHAR 0047
ENCODING 71
SWIDTH 960 0
DWIDTH 16 0
BBX 12 13 0 0
BITMAP
3FC0
3FC0
F0F0
F0F0
F000
F000
F000
F3F0
F3F0
F0F0
F0F0
3FF0
3FF0
ENDCHAR
STARTCHAR 0048
ENCODING 72
SWIDTH 960 0
DWIDTH 16 0
BBX 12 13 0 0
BITMAP
C0F0
C0F0
C0F0
C0F0
FFF0
FFF0
C0F0
C0F0
C0F0
C0F0
C0F0
C0F0
C0F0
ENDCHAR
STARTCHAR 0049
ENCODING 73
SWIDTH 960 0
DWIDTH 16 0
BBX 8 13 2 0
BITMAP
FF
FF
3C
3C
3C
3C
3C
3C
3C
3C
3C
FF
FF
ENDCHAR
STARTCHAR 004A
ENCODING 74
SWIDTH 960 0
DWIDTH 16 0
BBX 12 13 0 0
BITMAP
0FF0
0FF0
03C0
03C0
03C0
03C0
03C0
F3C0
F3C0
F3C0
F3C0
3F00
3F00
ENDCHAR
STARTCHAR 004B
ENCODING 75
SWIDTH 960 0
DWIDTH 16 0
BBX 12 13 0 0
BITMAP
F0F0
F0F0
F3C0
F3C0
FF00
FF00
FF00
FF00
F3C0
F3C0
F3C0
F0F0
F0F0
ENDCHAR
STARTCHAR 004C
ENCODING 76
SWIDTH 1020 0
DWIDTH 17 0
BBX 13 13 0 0
BITMAP
F000
F000
F000
F000
F000
F000
F000
F000
F000
F000
F000
FFF8
FFF8
ENDCHAR
STARTCHAR 004D
ENCODING 77
SWIDTH 960 0
DWIDTH 16 0
BBX 12 13 0 0
BITMAP
C0F0
C0F0
F3F0
F3F0
FFF0
FFF0
CCF0
CCF0
C0F0
C0F0
C0F0
C0F0
C0F0
ENDCHAR
STARTCHAR 004E
ENCODING 78
SWIDTH 960 0
DWIDTH 16 0
BBX 12 13 0 0
BITMAP
C0F0
C0F0
F0F0
F0F0
FCF0
FCF0
CCF0
CFF0
C3F0
C3F0
C3F0
C0F0
C0F0
ENDCHAR
STARTCHAR 004F
ENCODING 79
SWIDTH 960 0
DWIDTH 16 0
BBX 12 13 0 0
BITMAP
3FC0
3FC0
F0F0
F0F0
F0F0
F0F0
F0F0
F0F0
F0F0
F0F0
F0F0
3FC0
3FC0
ENDCHAR
STARTCHAR 0050
ENCODING 80
SWIDTH 960 0
DWIDTH 16 0
BBX 12 13 0 0
BITMAP
FFC0
FFC0
F0F0
F0F0
F0F0
F0F0
F0C0
FFC0
FFC0
F000
F000
F000
F000
ENDCHAR
STARTCHAR 0051
ENCODING 81
SWIDTH 960 0
DWIDTH 16 0
BBX 12 13 0 0
BITMAP
3FC0
3FC0
F030
F030
F030
F030
F030
F330
F330
F0C0
F0C0
3F30
3F30
ENDCHAR
STARTCHAR 0052
ENCODING 82
SWIDTH 960 0
DWIDTH 16 0
BBX 12 13 0 0
BITMAP
FFC0
FFC0
F0F0
F0F0
F0F0
F0F0
F0C0
FFC0
FFC0
F300
F300
F0F0
F0F0
ENDCHAR
STARTCHAR 0053
ENCODING 83
SWIDTH 960 0
DWIDTH 16 0
BBX 12 13 0 0
BITMAP
3FC0
3FC0
F000
F000
3FC0
3FC0
03C0
03F0
03F0
C3F0
C3F0
3FC0
3FC0
ENDCHAR
STARTCHAR 0054
ENCODING 84
SWIDTH 1020 0
DWIDTH 17 0
BBX 13 13 0 0
BITMAP
FFF8
FFF8
0F00
0F00
0F00
0F00
0F00
0F00
0F00
0F00
0F00
0F00
0F00
ENDCHAR
STARTCHAR 0055
ENCODING 85
SWIDTH 960 0
DWIDTH 16 0
BBX 12 13 0 0
BITMAP
C0F0
C0F0
C0F0
C0F0
C0F0
C0F0
C0F0
C0F0
C0F0
C3F0
C3F0
3FC0
3FC0
ENDCHAR
STARTCHAR 0056
ENCODING 86
SWIDTH 960 0
DWIDTH 16 0
BBX 12 13 0 0
BITMAP
C0F0
C0F0
C0F0
C0F0
C0F0
C0F0
C0F0
C0F0
C0F0
33C0
33C0
0F00
0F00
ENDCHAR
STARTCHAR 0057
ENCODING 87
SWIDTH 960 0
DWIDTH 16 0
BBX 12 13 0 0
BITMAP
C0F0
C0F0
C0F0
C0F0
CCF0
CCF0
CCF0
FFF0
F3F0
F3F0
F3F0
C0F0
C0F0
ENDCHAR
STARTCHAR 0058
ENCODING 88
SWIDTH 960 0
DWIDTH 16 0
BBX 12 13 0 0
BITMAP
C0F0
C0F0
33C0
33C0
0F00
0F00
0F00
3F00
3000
F0C0
F0C0
C030
C030
ENDCHAR
STARTCHAR 0059
ENCODING 89
SWIDTH 960 0
DWIDTH 16 0
BBX 12 13 0 0
BITMAP
F0F0
F0F0
F0F0
F0F0
3FC0
3FC0
0F00
0F00
0F00
0F00
0F00
0F00
0F00
ENDCHAR
STARTCHAR 005A
ENCODING 90
SWIDTH 960 0
DWIDTH 16 0
BBX 12 13 0 0
BITMAP
FFF0
FFF0
03F0
03F0
0FC0
0FC0
3FC0
3F00
3F00
FC00
FC00
FFF0
FFF0
ENDCHAR
STARTCHAR 005B
ENCODING 91
SWIDTH 1020 0
DWIDTH 17 0
BBX 17 17 -2 -2
BITMAP
0FF000
0FF000
300600
300600
C00180
C00180
C00180
C00180
C00180
FFFF80
FFFF80
300600
300600
300600
300600
0FF000
0FF000
ENDCHAR
STARTCHAR 005D
ENCODING 93
SWIDTH 1020 0
DWIDTH 17 0
BBX 13 6 0 7
BITMAP
3FC0
3FC0
FFF8
FFF8
FFF8
FFF8
ENDCHAR
STARTCHAR 0061
ENCODING 97
SWIDTH 960 0
DWIDTH 16 0
BBX 12 13 0 0
BITMAP
3FC0
3FC0
C3F0
C3F0
C3F0
C3F0
C3F0
FFF0
FFF0
C3F0
C3F0
C3F0
C3F0
ENDCHAR
STARTCHAR 0062
ENCODING 98
SWIDTH 960 0
DWIDTH 16 0
BBX 12 13 0 0
BITMAP
FFC0
FFC0
F0F0
F0F0
FFC0
FFC0
F0C0
F0F0
F0F0
F0F0
F0F0
FFC0
FFC0
ENDCHAR
STARTCHAR 0063
ENCODING 99
SWIDTH 960 0
DWIDTH 16 0
BBX 12 13 0 0
BITMAP
3FC0
3FC0
F0F0
F0F0
F000
F000
F000
F000
F000
F0F0
F0F0
3FC0
3FC0
ENDCHAR
STARTCHAR 0064
ENCODING 100
SWIDTH 960 0
DWIDTH 16 0
BBX 12 13 0 0
BITMAP
FFC0
FFC0
C3F0
C3F0
C3F0
C3F0
C3F0
C3F0
C3F0
C3F0
C3F0
FFC0
FFC0
ENDCHAR
STARTCHAR 0065
ENCODING 101
SWIDTH 1020 0
DWIDTH 17 0
BBX 13 13 0 0
BITMAP
FFF8
FFF8
F000
F000
FFE0
FFE0
F000
F000
F000
F000
F000
FFF8
FFF8
ENDCHAR
STARTCHAR 0066
ENCODING 102
SWIDTH 1020 0
DWIDTH 17 0
BBX 13 13 0 0
BITMAP
FFF8
FFF8
F000
F000
F000
F000
F000
FFE0
FFE0
F000
F000
F000
F000
ENDCHAR
STARTCHAR 0067
ENCODING 103
SWIDTH 960 0
DWIDTH 16 0
BBX 12 13 0 0
BITMAP
3FC0
3FC0
F0F0
F0F0
F000
F000
F000
F3F0
F3F0
F0F0
F0F0
3FF0
3FF0
ENDCHAR
STARTCHAR 0068
ENCODING 104
SWIDTH 960 0
DWIDTH 16 0
BBX 12 13 0 0
BITMAP
C0F0
C0F0
C0F0
C0F0
FFF0
FFF0
C0F0
C0F0
C0F0
C0F0
C0F0
C0F0
C0F0
ENDCHAR
STARTCHAR 0069
ENCODING 105
SWIDTH 960 0
DWIDTH 16 0
BBX 8 13 2 0
BITMAP
FF
FF
3C
3C
3C
3C
3C
3C
3C
3C
3C
FF
FF
ENDCHAR
STARTCHAR 006A
ENCODING 106
SWIDTH 960 0
DWIDTH 16 0
BBX 12 13 0 0
BITMAP
0FF0
0FF0
03C0
03C0
03C0
03C0
03C0
F3C0
F3C0
F3C0
F3C0
3F00
3F00
ENDCHAR
STARTCHAR 006B
ENCODING 107
SWIDTH 960 0
DWIDTH 16 0
BBX 12 13 0 0
BITMAP
F0F0
F0F0
F3C0
F3C0
FF00
FF00
FF00
FF00
F3C0
F3C0
F3C0
F0F0
F0F0
ENDCHAR
STARTCHAR 006C
ENCODING 108
SWIDTH 1020 0
DWIDTH 17 0
BBX 13 13 0 0
BITMAP
F000
F000
F000
F000
F000
F000
F000
F000
F000
F000
F000
FFF8
FFF8
ENDCHAR
STARTCHAR 006D
ENCODING 109
SWIDTH 960 0
DWIDTH 16 0
BBX 12 13 0 0
BITMAP
C0F0
C0F0
F3F0
F3F0
FFF0
FFF0
CCF0
CCF0
C0F0
C0F0
C0F0
C0F0
C0F0
ENDCHAR
STARTCHAR 006E
ENCODING 110
SWIDTH 960 0
DWIDTH 16 0
BBX 12 13 0 0
BITMAP
C0F0
C0F0
F0F0
F0F0
FCF0
FCF0
CCF0
CFF0
C3F0
C3F0
C3F0
C0F0
C0F0
ENDCHAR
STARTCHAR 006F
ENCODING 111
SWIDTH 960 0
DWIDTH 16 0
BBX 12 13 0 0
BITMAP
3FC0
3FC0
F0F0
F0F0
F0F0
F0F0
F0F0
F0F0
F0F0
F0F0
F0F0
3FC0
3FC0
ENDCHAR
STARTCHAR 0070
ENCODING 112
SWIDTH 960 0
DWIDTH 16 0
BBX 12 13 0 0
BITMAP
FFC0
FFC0
F0F0
F0F0
F0F0
F0F0
F0C0
FFC0
FFC0
F000
F000
F000
F000
ENDCHAR
STARTCHAR 0071
ENCODING 113
SWIDTH 960 0
DWIDTH 16 0
BBX 12 13 0 0
BITMAP
3FC0
3FC0
F030
F030
F030
F030
F030
F330
F330
F0C0
F0C0
3F30
3F30
ENDCHAR
STARTCHAR 0072
ENCODING 114
SWIDTH 960 0
DWIDTH 16 0
BBX 12 13 0 0
BITMAP
FFC0
FFC0
F0F0
F0F0
F0F0
F0F0
F0C0
FFC0
FFC0
F300
F300
F0F0
F0F0
ENDCHAR
STARTCHAR 0073
ENCODING 115
SWIDTH 960 0
DWIDTH 16 0
BBX 12 13 0 0
BITMAP
3FC0
3FC0
F000
F000
3FC0
3FC0
03C0
03F0
03F0
C3F0
C3F0
3FC0
3FC0
ENDCHAR
STARTCHAR 0074
ENCODING 116
SWIDTH 1020 0
DWIDTH 17 0
BBX 13 13 0 0
BITMAP
FFF8
FFF8
0F00
0F00
0F00
0F00
0F00
0F00
0F00
0F00
0F00
0F00
0F00
ENDCHAR
STARTCHAR 0075
ENCODING 117
SWIDTH 960 0
DWIDTH 16 0
BBX 12 13 0 0
BITMAP
C0F0
C0F0
C0F0
C0F0
C0F0
C0F0
C0F0
C0F0
C0F0
C3F0
C3F0
3FC0
3FC0
ENDCHAR
STARTCHAR 0076
ENCODING 118
SWIDTH 960 0
DWIDTH 16 0
BBX 12 13 0 0
BITMAP
C0F0
C0F0
C0F0
C0F0
C0F0
C0F0
C0F0
C0F0
C0F0
33C0
33C0
0F00
0F00
ENDCHAR
STARTCHAR 0077
ENCODING 119
SWIDTH 960 0
DWIDTH 16 0
BBX 12 13 0 0
BITMAP
C0F0
C0F0
C0F0
C0F0
CCF0
CCF0
CCF0
FFF0
F3F0
F3F0
F3F0
C0F0
C0F0
ENDCHAR
STARTCHAR 0078
ENCODING 120
SWIDTH 960 0
DWIDTH 16 0
BBX 12 13 0 0
BITMAP
C0F0
C0F0
33C0
33C0
0F00
0F00
0F00
3F00
3000
F0C0
F0C0
C030
C030
ENDCHAR
STARTCHAR 0079
ENCODING 121
SWIDTH 960 0
DWIDTH 16 0
BBX 12 13 0 0
BITMAP
F0F0
F0F0
F0F0
F0F0
3FC0
3FC0
0F00
0F00
0F00
0F00
0F00
0F00
0F00
ENDCHAR
STARTCHAR 007A
ENCODING 122
SWIDTH 960 0
DWIDTH 16 0
BBX 12 13 0 0
BITMAP
FFF0
FFF0
03F0
03F0
0FC0
0FC0
3FC0
3F00
3F00
FC00
FC00
FFF0
FFF0
ENDCHAR
STARTCHAR 007C
ENCODING 124
SWIDTH 6240 0
DWIDTH 104 0
BBX 104 17 0 0
BITMAP
F01E780000000000000003C000
F01E780000000000000003C000
FC1E780000F00000000003C000
FC1E780000F00000000003C000
FC1E000003FC0000000003C000
FC1E000003FC0000000003C000
F31E79E780F03FC1E781FFC3FC
F31E79E780F03FC1E781FFC3FC
F31E79F9E0F0F0F1F9E783CF0F
F31E79F9E0F0F0F1F9E783CF0F
F01E79E1E0F0F0F1E1E783CF0F
F0FE79E1E0F0FFF1E1E783CF0F
F0FE79E1E0F0FFF1E1E783CF0F
F0FE79E1E0F0F001E1E783CF0F
F0FE79E1E0F0F001E1E783CF0F
F01E79E1E0F03FF1E1E1FFC3FC
F01E79E1E0F03FF1E1E1FFC3FC
ENDCHAR
STARTCHAR 007E
ENCODING 126
SWIDTH 1020 0
DWIDTH 17 0
BBX 9 13 0 0
BITMAP
F000
F000
FE00
FE00
FF80
FF80
FF80
FF80
FE00
FE00
FE00
F000
F000
ENDCHAR
STARTCHAR 00A9
ENCODING 169
SWIDTH 1020 0
DWIDTH 17 0
BBX 15 15 0 0
BITMAP
0FC0
0FC0
3030
3030
CFC6
CFC6
CC06
CC06
CC06
CFC6
CFC6
3030
3030
0FC0
0FC0
ENDCHAR
STARTCHAR 2018
ENCODING 8216
SWIDTH 960 0
DWIDTH 16 0
BBX 4 6 4 9
BITMAP
F0
F0
F0
F0
30
30
ENDCHAR
STARTCHAR 2019
ENCODING 8217
SWIDTH 960 0
DWIDTH 16 0
BBX 4 6 4 9
BITMAP
F0
F0
F0
F0
30
30
ENDCHAR
STARTCHAR 201C
ENCODING 8220
SWIDTH 1020 0
DWIDTH 17 0
BBX 10 6 0 7
BITMAP
F3C0
F3C0
F3C0
F3C0
30C0
30C0
ENDCHAR
STARTCHAR 201D
ENCODING 8221
SWIDTH 1020 0
DWIDTH 17 0
BBX 10 6 0 7
BITMAP
F3C0
F3C0
F3C0
F3C0
30C0
30C0
ENDCHAR
ENDFONT